<svg width="118" height="93" viewBox="0 0 118 93" fill="none" xmlns="http://www.w3.org/2000/svg">
<path d="M13.2793 0.991446C17.8239 0.991446 21.6111 2.5852 24.6408 5.77271C27.702 8.96022 29.2327 12.8894 29.2327 17.5602C29.2327 22.231 27.702 26.1601 24.6408 29.3476C21.6111 32.5352 17.8239 34.1289 13.2793 34.1289H0.119042V0.991446H13.2793ZM13.2793 27.8801C16.1513 27.8801 18.4867 26.9333 20.2856 25.0398C22.0844 23.1146 22.9839 20.6214 22.9839 17.5602C22.9839 14.4989 22.0844 12.0215 20.2856 10.1279C18.4867 8.20279 16.1513 7.24023 13.2793 7.24023H6.65186V27.8801H13.2793ZM38.7427 24.8031C39.5632 27.7697 41.7882 29.253 45.4175 29.253C47.7529 29.253 49.5202 28.464 50.7195 26.886L55.6428 29.7264C53.3074 33.1032 49.8674 34.7917 45.3228 34.7917C41.4095 34.7917 38.2693 33.6082 35.9023 31.2412C33.5354 28.8743 32.3519 25.8919 32.3519 22.2941C32.3519 18.7279 33.5196 15.7613 35.855 13.3943C38.1904 10.9958 41.1885 9.79654 44.8494 9.79654C48.321 9.79654 51.1771 10.9958 53.4178 13.3943C55.6901 15.7928 56.8263 18.7594 56.8263 22.2941C56.8263 23.0831 56.7474 23.9194 56.5896 24.8031H38.7427ZM38.648 20.0692H50.7195C50.3723 18.4596 49.6465 17.2604 48.5419 16.4714C47.4689 15.6824 46.2381 15.2879 44.8494 15.2879C43.2083 15.2879 41.8513 15.7139 40.7783 16.5661C39.7052 17.3866 38.9952 18.5543 38.648 20.0692ZM74.2497 9.79654C76.8376 9.79654 78.9678 10.6644 80.6405 12.4002C82.3447 14.136 83.1968 16.5345 83.1968 19.5958V34.1289H77.09V20.3532C77.09 18.7752 76.664 17.576 75.8119 16.7554C74.9598 15.9033 73.8236 15.4773 72.4035 15.4773C70.8255 15.4773 69.5631 15.9664 68.6163 16.9448C67.6695 17.9231 67.1961 19.3906 67.1961 21.3473V34.1289H61.0894V10.4593H67.1961V13.1103C68.6794 10.9011 71.0306 9.79654 74.2497 9.79654ZM91.4409 7.61894C90.4309 7.61894 89.5473 7.25601 88.7899 6.53014C88.064 5.77271 87.7011 4.88904 87.7011 3.87914C87.7011 2.86924 88.064 1.98557 88.7899 1.22814C89.5473 0.470715 90.4309 0.092001 91.4409 0.092001C92.4823 0.092001 93.366 0.470715 94.0918 1.22814C94.8493 1.98557 95.228 2.86924 95.228 3.87914C95.228 4.88904 94.8493 5.77271 94.0918 6.53014C93.366 7.25601 92.4823 7.61894 91.4409 7.61894ZM88.4111 34.1289V10.4593H94.5179V34.1289H88.4111ZM105.556 17.1815C105.556 17.8127 105.966 18.3334 106.787 18.7437C107.639 19.1224 108.664 19.4695 109.864 19.7851C111.063 20.0692 112.262 20.4479 113.461 20.9213C114.661 21.3631 115.671 22.1205 116.491 23.1935C117.343 24.2666 117.769 25.6078 117.769 27.2174C117.769 29.6475 116.854 31.5252 115.024 32.8507C113.225 34.1447 110.968 34.7917 108.254 34.7917C103.394 34.7917 100.08 32.9139 98.3128 29.1583L103.615 26.1759C104.309 28.2273 105.856 29.253 108.254 29.253C110.432 29.253 111.52 28.5744 111.52 27.2174C111.52 26.5862 111.094 26.0812 110.242 25.7025C109.422 25.2923 108.412 24.9293 107.213 24.6137C106.013 24.2981 104.814 23.9036 103.615 23.4302C102.416 22.9568 101.39 22.2152 100.538 21.2053C99.7172 20.1638 99.3069 18.8699 99.3069 17.3235C99.3069 14.9881 100.159 13.1576 101.863 11.8321C103.599 10.4751 105.745 9.79654 108.301 9.79654C110.227 9.79654 111.978 10.2384 113.556 11.122C115.134 11.9741 116.381 13.205 117.296 14.8145L112.089 17.6549C111.331 16.0453 110.069 15.2406 108.301 15.2406C107.512 15.2406 106.85 15.4141 106.313 15.7613C105.808 16.1084 105.556 16.5818 105.556 17.1815ZM19.2914 58.9914H25.8242V92.1289H20.8536L6.65186 71.8677V92.1289H0.119042V58.9914H5.08966L19.2914 79.2053V58.9914ZM51.8538 89.1939C49.4237 91.5924 46.4571 92.7917 42.954 92.7917C39.4509 92.7917 36.4843 91.5924 34.0542 89.1939C31.6557 86.7638 30.4565 83.7972 30.4565 80.2941C30.4565 76.791 31.6557 73.8402 34.0542 71.4417C36.4843 69.0116 39.4509 67.7965 42.954 67.7965C46.4571 67.7965 49.4237 69.0116 51.8538 71.4417C54.2839 73.8402 55.4989 76.791 55.4989 80.2941C55.4989 83.7972 54.2839 86.7638 51.8538 89.1939ZM38.3621 84.9807C39.5929 86.2115 41.1236 86.8269 42.954 86.8269C44.7845 86.8269 46.3151 86.2115 47.5459 84.9807C48.7767 83.7499 49.3922 82.1877 49.3922 80.2941C49.3922 78.4005 48.7767 76.8383 47.5459 75.6075C46.3151 74.3767 44.7845 73.7613 42.954 73.7613C41.1236 73.7613 39.5929 74.3767 38.3621 75.6075C37.1628 76.8383 36.5632 78.4005 36.5632 80.2941C36.5632 82.1877 37.1628 83.7499 38.3621 84.9807ZM74.445 68.4593H81.1671L72.1727 92.1289H65.2138L56.2194 68.4593H62.9415L68.6696 85.028L74.445 68.4593ZM87.1415 65.6189C86.1316 65.6189 85.2479 65.256 84.4905 64.5301C83.7646 63.7727 83.4017 62.889 83.4017 61.8791C83.4017 60.8692 83.7646 59.9856 84.4905 59.2281C85.2479 58.4707 86.1316 58.092 87.1415 58.092C88.1829 58.092 89.0666 58.4707 89.7925 59.2281C90.5499 59.9856 90.9286 60.8692 90.9286 61.8791C90.9286 62.889 90.5499 63.7727 89.7925 64.5301C89.0666 65.256 88.1829 65.6189 87.1415 65.6189ZM84.1118 92.1289V68.4593H90.2185V92.1289H84.1118ZM117.631 92.1289H110.53L101.915 81.3829V92.1289H95.8079V58.9914H101.915V78.8739L110.057 68.4593H117.347L107.832 80.1521L117.631 92.1289Z" fill="#070707"/>
</svg>
